<?xml version="1.0" standalone="no"?>
<!DOCTYPE svg PUBLIC "-//W3C//DTD SVG 20010904//EN"
 "http://www.w3.org/TR/2001/REC-SVG-20010904/DTD/svg10.dtd">
<svg version="1.0" xmlns="http://www.w3.org/2000/svg"
 width="260.000000pt" height="260.000000pt" viewBox="0 0 260.000000 260.000000"
 preserveAspectRatio="xMidYMid meet">
<metadata>
Created by potrace 1.11, written by Peter Selinger 2001-2013
</metadata>
<g transform="translate(0.000000,260.000000) scale(0.100000,-0.100000)"
fill="#000000" stroke="none">
<path d="M849 2321 l-24 -19 -1 -709 c-1 -389 -2 -711 -3 -715 -1 -5 -66 -8
-146 -8 l-145 0 0 89 c0 154 -5 158 -224 156 -182 -1 -176 5 -176 -184 0 -124
2 -139 20 -159 16 -17 32 -22 70 -22 l50 0 0 -103 c0 -153 -33 -142 388 -143
191 0 361 3 379 8 40 11 48 37 48 150 l-1 88 47 0 c30 0 55 6 69 18 l22 18 0
745 c0 411 -3 756 -7 768 -10 34 -45 41 -200 41 -126 0 -146 -2 -166 -19z"/>
<path d="M1264 2326 c-19 -14 -19 -36 -22 -894 -2 -849 -2 -880 17 -903 18
-22 24 -23 167 -24 176 -2 199 5 208 62 3 21 5 123 4 226 0 104 3 191 6 194 4
4 115 7 249 8 133 0 252 4 264 9 29 9 33 28 36 144 l2 92 51 0 c89 0 85 -21
84 426 0 370 -1 389 -19 408 -12 11 -36 20 -63 21 -24 2 -46 3 -50 4 -4 1 -7
40 -7 89 2 110 3 104 -21 130 -21 22 -21 22 -453 22 -358 0 -437 -2 -453 -14z
m669 -646 c0 -162 -1 -301 -2 -307 -1 -10 -37 -13 -146 -13 l-145 0 -1 43 c0
68 -1 499 0 537 l1 35 148 0 147 0 -2 -295z"/>
</g>
</svg>
