<svg xmlns="http://www.w3.org/2000/svg" version="1.1" xmlnsXlink="http://www.w3.org/1999/xlink" xmlnsSvgjs="http://svgjs.dev/svgjs" viewBox="0 0 800 800" opacity="1"><defs><linearGradient x1="50%" y1="0%" x2="50%" y2="100%" id="gggyrate-grad"><stop stop-color="hsl(240, 78%, 52%)" stop-opacity="1" offset="0%" ></stop><stop stop-color="hsl(0, 86%, 38%)" stop-opacity="1" offset="100%"></stop></linearGradient></defs><g stroke-width="9" stroke="url(#gggyrate-grad)" fill="none"><polygon points="400,202 136,598 664,598" transform="rotate(104, 400, 400)" opacity="0.05"></polygon><polygon points="400,214.375 152.5,585.625 647.5,585.625" transform="rotate(97.5, 400, 400)" opacity="0.11"></polygon><polygon points="400,226.75 169,573.25 631,573.25" transform="rotate(91, 400, 400)" opacity="0.18"></polygon><polygon points="400,239.125 185.5,560.875 614.5,560.875" transform="rotate(84.5, 400, 400)" opacity="0.24"></polygon><polygon points="400,251.5 202,548.5 598,548.5" transform="rotate(78, 400, 400)" opacity="0.30"></polygon><polygon points="400,263.875 218.5,536.125 581.5,536.125" transform="rotate(71.5, 400, 400)" opacity="0.37"></polygon><polygon points="400,276.25 235,523.75 565,523.75" transform="rotate(65, 400, 400)" opacity="0.43"></polygon><polygon points="400,288.625 251.5,511.375 548.5,511.375" transform="rotate(58.5, 400, 400)" opacity="0.49"></polygon><polygon points="400,301 268,499 532,499" transform="rotate(52, 400, 400)" opacity="0.56"></polygon><polygon points="400,313.375 284.5,486.625 515.5,486.625" transform="rotate(45.5, 400, 400)" opacity="0.62"></polygon><polygon points="400,325.75 301,474.25 499,474.25" transform="rotate(39, 400, 400)" opacity="0.68"></polygon><polygon points="400,338.125 317.5,461.875 482.5,461.875" transform="rotate(32.5, 400, 400)" opacity="0.75"></polygon><polygon points="400,350.5 334,449.5 466,449.5" transform="rotate(26, 400, 400)" opacity="0.81"></polygon><polygon points="400,362.875 350.5,437.125 449.5,437.125" transform="rotate(19.5, 400, 400)" opacity="0.87"></polygon><polygon points="400,375.25 367,424.75 433,424.75" transform="rotate(13, 400, 400)" opacity="0.94"></polygon><polygon points="400,387.625 383.5,412.375 416.5,412.375" transform="rotate(6.5, 400, 400)" opacity="1.00"></polygon></g></svg>